<svg width="119" height="111" viewBox="0 0 119 111" fill="none" xmlns="http://www.w3.org/2000/svg">
<path d="M85.2835 1.74805C82.5936 1.74805 80.0138 2.74489 78.1117 4.51928C76.2096 6.29366 75.1411 8.70025 75.1411 11.2096V110.126L69.0003 106.685L62.8503 110.126L56.7003 106.685L50.5595 110.126L44.4187 106.685L38.2595 110.126L32.1187 106.685L25.9688 110.126L19.8188 106.685L13.6688 110.126L7.50954 106.685L1.37798 110.126V11.2096C1.37798 8.70025 2.44656 6.29366 4.34863 4.51928C6.2507 2.74489 8.83047 1.74805 11.5204 1.74805H85.2835Z" fill="white"/>
<path d="M68.6833 100.512L74.7953 104.357V110.126L68.6833 106.28L62.5621 110.126L56.441 106.28L50.329 110.126L44.217 106.28L38.0958 110.126L31.9838 106.28L25.8627 110.126L19.7507 106.28L13.6295 110.126L7.49915 106.28L1.37798 110.126V104.357L7.49915 100.512L13.6295 104.357L19.7507 100.512L25.8627 104.357L31.9838 100.512L38.0958 104.357L44.217 100.512L50.329 104.357L56.441 100.512L62.5621 104.357L68.6833 100.512Z" fill="#EFEFEF"/>
<path d="M74.7953 41.5151V91.335C71.2789 92.0234 67.6599 91.8963 64.1961 90.9627C60.7322 90.0291 57.5085 88.312 54.7546 85.9335C52.0007 83.5551 49.7842 80.5738 48.2628 77.2019C46.7415 73.8301 45.9528 70.1505 45.9528 66.4251C45.9528 62.6997 46.7415 59.0201 48.2628 55.6482C49.7842 52.2763 52.0007 49.295 54.7546 46.9166C57.5085 44.5382 60.7322 42.821 64.1961 41.8874C67.6599 40.9538 71.2789 40.8267 74.7953 41.5151Z" fill="#EFEFEF"/>
<path d="M89.1118 77.5687L85.2009 81.4795L90.7348 87.0133L94.6456 83.1025L89.1118 77.5687Z" fill="white"/>
<path d="M70.4252 88.2754C83.941 88.2754 94.8977 76.9274 94.8977 62.929C94.8977 48.9305 83.941 37.5825 70.4252 37.5825C56.9095 37.5825 45.9528 48.9305 45.9528 62.929C45.9528 76.9274 56.9095 88.2754 70.4252 88.2754Z" fill="#B5B5B5"/>
<path d="M87.7016 80.9731C71.8282 97.0978 44.7965 84.6207 45.9911 62.0552C47.1314 83.1873 72.6156 93.5054 87.6654 78.2167C91.9518 73.9197 94.5155 68.1609 94.86 62.0552C95.0514 65.543 94.5123 69.0324 93.2784 72.2933C92.0446 75.5541 90.1438 78.5124 87.7016 80.9731Z" fill="#9B9B9B"/>
<path d="M111.096 110.124C111.392 110.124 111.686 110.065 111.959 109.952C112.233 109.838 112.481 109.672 112.69 109.462C117.137 105.016 117.622 104.801 117.622 103.599C117.622 103.303 117.564 103.009 117.45 102.736C117.337 102.462 117.17 102.214 116.96 102.005C96.4313 81.4799 97.5127 82.1603 96.1795 82.1603C95.8833 82.1601 95.5899 82.2185 95.3163 82.3321C95.0427 82.4456 94.7943 82.6122 94.5853 82.8221C90.1384 87.2683 89.6536 87.4827 89.6536 88.6851C89.6533 88.9813 89.7117 89.2746 89.8253 89.5481C89.9389 89.8217 90.1055 90.0701 90.3155 90.279C110.844 110.804 109.763 110.124 111.096 110.124Z" fill="#AD182D"/>
<path d="M70.4252 82.1574C81.0448 82.1574 89.6536 73.5486 89.6536 62.929C89.6536 52.3095 81.0448 43.7007 70.4252 43.7007C59.8057 43.7007 51.1969 52.3095 51.1969 62.929C51.1969 73.5486 59.8057 82.1574 70.4252 82.1574Z" fill="#23A9A2"/>
<path d="M89.558 64.6771C88.0657 48.8877 68.5022 41.4028 56.83 52.9853C53.6659 56.1183 51.7061 60.2554 51.2914 64.6771C51.0105 61.8762 51.3575 59.0482 52.3072 56.3967C53.257 53.7452 54.7861 51.3362 56.7842 49.343C69.5916 36.6405 91.2699 46.9573 89.558 64.6771Z" fill="#00928B"/>
<path d="M94.8977 10.9689V19.2284H74.7953V10.9689C74.7953 8.29158 75.8543 5.7239 77.7392 3.83075C79.6242 1.93759 82.1807 0.874023 84.8465 0.874023C87.5122 0.874023 90.0688 1.93759 91.9537 3.83075C93.8387 5.7239 94.8977 8.29158 94.8977 10.9689Z" fill="#D3D3D3"/>
<path d="M55.4821 48.7272C42.5393 61.4098 51.8294 83.0314 69.9903 83.0314C88.1512 83.0314 97.4319 61.3916 84.4985 48.7181C82.5938 46.8496 80.3319 45.3676 77.8421 44.3566C75.3523 43.3457 72.6834 42.8258 69.9884 42.8267C67.2933 42.8275 64.6248 43.3491 62.1357 44.3616C59.6465 45.3741 57.3855 46.8576 55.4821 48.7272ZM83.1567 75.8455C80.5517 78.4025 77.2311 80.1449 73.6152 80.8521C69.9992 81.5592 66.2505 81.1994 62.8433 79.8182C59.4362 78.4369 56.5237 76.0963 54.4746 73.0926C52.4254 70.0888 51.3316 66.5569 51.3316 62.9438C51.3316 59.3307 52.4254 55.7988 54.4746 52.795C56.5237 49.7912 59.4362 47.4506 62.8433 46.0694C66.2505 44.6881 69.9992 44.3283 73.6152 45.0355C77.2311 45.7427 80.5517 47.485 83.1567 50.0421C86.6447 53.4658 88.6038 58.106 88.6038 62.9438C88.6038 67.7816 86.6447 72.4217 83.1567 75.8455Z" fill="#131313"/>
<path d="M117.575 101.113L98.6217 82.155C98.1095 81.6657 97.4512 81.3576 96.7474 81.2777C96.0436 81.1978 95.333 81.3505 94.7241 81.7126L91.2688 78.2565C93.8539 74.7977 95.5298 70.7454 96.1431 66.4708C96.7564 62.1962 96.2874 57.836 94.7791 53.7897C93.2708 49.7434 90.7714 46.1404 87.51 43.3108C84.2485 40.4812 80.3293 38.5156 76.1114 37.5939V20.276H95.4613C95.7056 20.276 95.94 20.1789 96.1128 20.0061C96.2856 19.8332 96.3827 19.5988 96.3827 19.3544V11.0596C96.3827 8.12644 95.2177 5.31338 93.1441 3.23929C91.0705 1.16521 88.2581 0 85.3256 0H11.6119C8.67943 0 5.86703 1.16521 3.79343 3.23929C1.71983 5.31338 0.554892 8.12644 0.554892 11.0596C0.554892 124.246 0.260037 110.246 1.08932 110.634C1.68824 110.919 1.5961 110.809 7.62219 107.196L13.2981 110.597C13.9431 110.984 13.7681 110.882 19.9232 107.196C25.8387 110.744 25.8848 110.984 26.5297 110.597L32.2057 107.196L37.8724 110.597C38.5082 110.975 38.3239 110.892 44.4882 107.196C50.4038 110.744 50.4498 110.984 51.104 110.597L56.7616 107.196L62.4375 110.597C63.0733 110.975 62.889 110.892 69.0441 107.196C75.2084 110.882 75.0149 110.965 75.6415 110.606C76.2681 110.246 76.1114 111.647 76.1114 88.0074C79.702 87.2313 83.0835 85.6911 86.0259 83.4914L89.472 86.9383C89.0915 87.5438 88.9288 88.2611 89.0109 88.9716C89.093 89.682 89.4149 90.3433 89.9235 90.846L108.886 109.804C109.18 110.098 109.529 110.331 109.914 110.489C110.298 110.648 110.71 110.728 111.125 110.726C112.867 110.726 113.272 109.887 117.575 105.574C118.165 104.981 118.496 104.179 118.496 103.343C118.496 102.507 118.165 101.705 117.575 101.113ZM94.5398 62.8006C94.5398 67.54 93.1348 72.1729 90.5024 76.1135C87.8699 80.0541 84.1284 83.1255 79.7508 84.9391C75.3733 86.7528 70.5563 87.2274 65.9091 86.3028C61.2619 85.3782 56.9932 83.0959 53.6428 79.7447C50.2923 76.3935 48.0107 72.1238 47.0863 67.4755C46.1619 62.8272 46.6363 58.0092 48.4496 53.6306C50.2628 49.252 53.3334 45.5095 57.2731 42.8765C61.2128 40.2435 65.8447 38.8381 70.5829 38.8381C76.9367 38.8381 83.0302 41.3627 87.523 45.8566C92.0158 50.3504 94.5398 56.4454 94.5398 62.8006ZM94.5398 11.0596V18.4327H76.1114V11.0596C76.1114 8.61531 77.0822 6.27109 78.8102 4.54268C80.5382 2.81428 82.8819 1.84327 85.3256 1.84327C87.7694 1.84327 90.1131 2.81428 91.8411 4.54268C93.5691 6.27109 94.5398 8.61531 94.5398 11.0596ZM74.2686 108.173C69.1639 105.113 69.21 104.947 68.5742 105.325L62.9074 108.726L57.2407 105.325C56.5957 104.947 56.7431 105.058 50.6249 108.726C44.7094 105.177 44.6633 104.938 44.0091 105.325L38.3332 108.726L32.6664 105.325C32.0306 104.947 32.2057 105.03 26.0506 108.726C20.1351 105.177 20.089 104.938 19.4348 105.325L13.7681 108.726L8.09212 105.325C7.45634 104.947 7.53005 105.095 2.38852 108.182V11.0596C2.38852 9.84855 2.62716 8.64934 3.09079 7.53056C3.55442 6.41178 4.23396 5.39536 5.09056 4.53942C5.94715 3.68348 6.964 3.0048 8.08299 2.54218C9.20197 2.07956 10.4011 1.84206 11.6119 1.84327C82.4047 1.84327 79.2811 1.84327 79.1889 1.84327C77.8647 2.73712 76.7477 3.90475 75.9131 5.26732C75.0786 6.62988 74.5461 8.15568 74.3515 9.7417C74.3515 16.0397 74.3515 10.8656 74.2686 37.2529C70.2968 36.6776 66.2456 37.037 62.437 38.3025C58.6285 39.5681 55.1676 41.7049 52.3295 44.543C34.887 61.9804 49.6851 91.8691 74.2686 88.3484V108.173ZM90.0802 79.7219L93.3236 82.966L90.7436 85.5466L87.5002 82.3025C88.4257 81.5104 89.2883 80.6476 90.0802 79.7219ZM112.047 108.486C111.801 108.727 111.47 108.862 111.125 108.862C110.781 108.862 110.45 108.727 110.204 108.486C89.4628 87.7309 90.8541 89.3622 90.8541 88.6065C90.8541 87.8507 90.9463 87.9798 95.4613 83.4729C95.5814 83.3503 95.7247 83.2529 95.8829 83.1864C96.0412 83.1199 96.2111 83.0857 96.3827 83.0857C96.5543 83.0857 96.7242 83.1199 96.8824 83.1864C97.0406 83.2529 97.184 83.3503 97.3041 83.4729C118.045 104.274 116.654 102.597 116.654 103.353C116.654 104.108 116.654 103.915 112.047 108.486Z" fill="#131313"/>
<rect x="14.4882" y="27.0947" width="47.1968" height="3.49606" fill="#AD182D"/>
<rect x="14.4882" y="36.7085" width="23.5984" height="3.49606" fill="#AD182D"/>
<rect x="14.4882" y="46.3228" width="23.5984" height="3.49606" fill="#AD182D"/>
</svg>
